<svg xmlns="http://www.w3.org/2000/svg" xml:space="preserve" id="Logo" x="0" y="0" style="enable-background:new 0 0 521.5 424.6" version="1.1" viewBox="0 0 521.5 424.6"><style>.st2{fill:url(#SVGID_00000183969431403484745140000002456364991543517884_)}.st3{fill:url(#SVGID_00000074416962858885879810000008676872057499748021_)}.st4{fill:url(#SVGID_00000168797728879238671630000004999347515862365845_)}.st5{fill:url(#SVGID_00000140693934948034887420000016097102196500174989_)}.st6{fill:url(#SVGID_00000072972465042127763320000013279988356698658954_)}.st7{fill:url(#SVGID_00000082370686417567367360000011704013436720814500_)}.st8{fill:url(#SVGID_00000069355902069446199920000013089331436598604476_)}.st9{fill:url(#SVGID_00000129921803696343836530000016691724640355781809_)}</style><path id="Tube_Body" d="M396.5 129c2.2-3.9 1.3-3.3 2.6-6.9-23-15.2-238.6-54.8-215.5 179.2 27-10.9 56.3-20.1 84.9-27.9-62.7-143.4 95.8-156.8 128-144.4z" style="fill-rule:evenodd;clip-rule:evenodd;fill:#c00"/><g id="Letter_Shadows"><path d="m183.4 288.3-8.6 3.2c0-1.9.5-4.2.8-6.6 1.5-8.2 4.2-17.5 4.2-17.5 11.8-7.6 29.9-12.2 29.9-12.2-.3 4-1.5 11.6-2.9 20.1-3.3 19.3-8.1 43.6-8.1 43.6-8.9 11.1-21.4 19-33.6 22.2-16.1 4.4-24.5-10.4-23.5-25.9.8-11.9 1.9-21.9 3.3-30.6 8-46.7 27.5-61.9 49.5-64.3 8.7-1 13.5 2.8 13.4 3.4-1.7 14.6-9.2 20.6-9.2 20.6-2.1-.8-4.2-1.1-6.4-.9-5.1.5-10.5 3.7-14.8 8.2-4.4 4.7-8.4 18.1-10.7 31.7-2.5 15.1-3.2 30.3-.6 34 2.1 2.7 9.4-.9 13.4-4.9.8-4 1.6-8.2 2.2-11.7 1-7.2 1.7-12.4 1.7-12.4zm38.1-64.2s-4.5 31.9-10.7 68.8c-1.7 9.6-2.6 19.1-3.2 28.1 0 0 23.9-10.2 41.9-20.1 0 0 1.5-6.4 2.8-14.2.4-2.3.8-4.8 1-7.1 0 0-13.4 5.7-23 10 0 0 1.5-8.9 3.4-20.8 3.1-17.9 7.3-42.7 9.1-54.8.1-.2-12 4.7-21.3 10.1zm81.7 64.6c3.7-46.1 9.4-93.6 9.4-93.6-5.6 2.1-21.3 11.4-21.3 11.4-1.1 5.5-2.2 24-3.1 40.8-.9 17-2.1 32.9-2.1 32.9-4.1 3.2-6.9 5.5-9 6-1.6.3-2.5-.7-2.4-3.9 1-20.8 6.6-70.1 6.6-70.1-3.7 1.6-20.2 11-20.2 11-1.8 12.1-2.9 29.9-3.9 47.1-.5 9.9-.8 20.7-1.1 32.5-.4 8.5 4.2 9.5 8.9 8.5 3-.6 5.8-2 7.5-3 22.5-12.4 30.7-19.6 30.7-19.6zm51.6-33.5s-10.1 6.7-22.5 12.7c-.1-4-.1-6.6.1-9.5.1-2.2.4-4.6 1.2-8 11.6-6.7 20.8-12.4 20.8-12.4 1.5-7.6 2.2-19 2.2-19-6.4 2.4-14.9 6.6-21.1 10.1-.1-2-.1-4 .1-6.2.2-3 .7-6.2 1.7-9.1 0 0 12.4-7.4 23.8-13.1 0 0 1.7-7 2.1-14.3.3-2.5.3-5 .2-7.3 0 0-25.1 10.1-43.6 23.4 0 0-3.7 31.8-6 62-1 12.3-1.7 24.3-1.8 33.6 0 0 23.8-7.8 43.7-24.4.1.1 1.1-8.5-.9-18.5zM228.2 100.9s-11.2 46.5-20.3 91.9c0 0-8.9 6.2-32.9 15.9-1.8.8-4.7 1.8-7.8 2.1-1.8.2-3.5 0-4.9-.6-7.1 11.8-20.3 22.3-31.8 28.9-12.7 7.4-20.8 9.1-20.8 9.1-2.9-10.4-2.8-17.5-2.8-23.5 0 0 16.2-4.6 28.7-17.6 5.3-5.1 2.1-7-2.3-10-3.7-2.4-6.2-3.9-9.6-5.9-10.6-6.2-18.4-14.3-16.3-25.6 1.2-7.7 7.1-17.3 13.3-23.7 7.6-7.9 12.6-12 20.3-16.6 8.8-5.3 19.4-9.8 28.9-11.6.2 4-.2 8.3-1 12.5-.7 4.7-2.2 9.5-3.8 13.3-5.5 1.5-12.7 5.1-16 7.3-2.4 1.6-18.6 12.4-11.7 17.4 6.7 5 13.9 10.1 20.4 15.3 1.8 1.4 3 2.6 4.2 3.8.8-4.9 1.5-9.6 2.3-14.1 3-17 6.2-34.6 9.4-46.3 0 0 17.5-7.5 21.4-8.6 0 0-11.4 48.3-14.8 68.9-.5 3.1.2 4.3 1.9 4.1 2.1-.2 5.2-2.2 9.6-4.9 0 0 3.1-15.6 6-32.4 2.9-16.6 6.1-34.8 7.8-40.2.2 0 16.8-7.4 22.6-8.9zm68.3 47.2c11.6-6.7 20.7-12.5 20.7-12.5 1.5-7.6 2.1-19 2.1-19-6.4 2.5-14.8 6.7-21 10.2-.1-2-.1-4 .1-6.2.2-3 .7-6.2 1.7-9.2 0 0 12.4-7.5 23.7-13.2 0 0 1.6-7 2.1-14.4.3-2.5.3-5 .1-7.3 0 0-25 10.2-43.4 23.7 0 0-.2 1.8-.5 4.8-.5-2-1.3-3.7-2.5-5-4.2-5.1-9-6.6-14.3-6.1-3.5.3-7.2 1.6-11.3 3.4-14 6.2-24.4 18.4-24.4 18.4-.6 5.6-.8 14.5-2.1 24.8-3.7 27-8.6 62-8.6 62 9.6-2.1 19.6-8.4 19.6-8.4l3.5-24.2c10.7-8.4 15.8-12.7 25-23.8 6.4-7.8 10.8-15.9 13.4-23.2-1.1 11.3-2.4 25.5-3.3 39.4-.9 12.3-1.5 24.3-1.6 33.7 0 0 23.8-8 43.5-24.6 0 0 1-8.6-1.1-18.6 0 0-10 6.7-22.4 12.8-.1-4-.2-6.6 0-9.5-.1-2.2.2-4.6 1-8zM381.4 84c-4-5.1-8.9-6.7-14.2-6.2-3.5.3-7 1.6-11.2 3.3-14 6.2-25.7 18.5-25.7 18.5-.5 5.7-.1 15-1.7 25.7-3.4 26.9-8.2 61.1-8.2 61.1 9.3-2.1 19.3-8.4 19.3-8.4l4.9-30.5c4.8 7 11.4 17.3 15.2 24.6 0 0 10.5-8.8 15.4-15.7 0 0-4.8-11.8-11.5-21.7 9.9-10.3 18.2-23.1 20.2-35.7 1.1-6.3.3-11.6-2.5-15z"/></g><g id="Letters"><linearGradient id="SVGID_1_" x1="169.076" x2="169.076" y1="334.266" y2="212.471" gradientUnits="userSpaceOnUse"><stop offset=".016" style="stop-color:#f9ea39"/><stop offset=".969" style="stop-color:#f6eb81"/></linearGradient><path d="M176.9 280.7s-.7 5.2-1.9 12.4c-.5 3.5-1.3 7.7-2.2 11.7-4.1 4-11.3 7.6-13.4 4.9-2.6-3.7-1.9-18.8.6-34 2.3-13.6 6.4-27 10.7-31.7 4.4-4.5 9.7-7.8 14.8-8.3 2.2-.2 4.3.1 6.4.9 0 0 7.5-6 9.2-20.6.1-.5-4.7-4.4-13.3-3.4-22.1 2.4-41.5 17.6-49.5 64.3-1.4 8.7-2.5 18.7-3.3 30.6-.9 15.5 7.5 30.3 23.5 25.9 12.2-3.2 24.7-11.1 33.6-22.2 0 0 4.7-24.3 8.1-43.6 1.4-8.5 2.6-16.2 2.9-20.2 0 0-18.1 4.6-29.9 12.2 0 0-2.7 9.3-4.2 17.5-.3 2.4-.8 4.7-.8 6.6l8.7-3z" style="fill:url(#SVGID_1_)"/><path d="m176.9 280.7-1.3-.2s-.7 5.2-1.9 12.3c-.5 3.4-1.3 7.6-2.1 11.6l1.3.3-.9-1c-2.8 2.8-7.7 5.5-10.1 5.4-.8 0-1.1-.2-1.3-.4l-1.1.8 1.1-.8c-.8-1-1.5-4.8-1.4-9.8 0-6.4.8-14.8 2.2-23.2 2.2-13.4 6.5-26.9 10.4-31l-1-.9 1 .9c4.2-4.4 9.4-7.4 14-7.8.4 0 .8-.1 1.2-.1 1.6 0 3.1.3 4.6.9l.7.3.6-.5c.2-.1 7.9-6.5 9.7-21.5l-1.3-.2 1.3.3v-.3c-.6-2-1.5-2-3.5-3.2-2-.9-4.8-1.7-8.4-1.7-.9 0-1.9.1-2.9.2-22.7 2.4-42.8 18.5-50.7 65.4-1.4 8.8-2.5 18.8-3.3 30.8 0 .8-.1 1.6-.1 2.4 0 13.1 6.6 25.6 19.4 25.7 1.9 0 3.8-.3 5.9-.8l-.4-1.3.3 1.3c12.5-3.3 25.2-11.3 34.3-22.6l.2-.3.1-.3s4.7-24.3 8.1-43.6c1.4-8.6 2.6-16.2 2.9-20.3l.1-1.9-1.8.5c-.1 0-18.2 4.6-30.3 12.4l-.4.3-.1.5s-2.7 9.4-4.2 17.7c-.3 2.3-.8 4.6-.8 6.7v1.9l11.2-4.2.1-.8-2.7-.4 1.3.5-1.3-.2 1.3.2-.5-1.3-8.6 3.2.5 1.3h1.3c0-1.7.4-3.9.7-6.4l-1.3-.2 1.3.2c1.4-8.1 4.1-17.4 4.1-17.4l-1.3-.4.7 1.1c11.5-7.4 29.5-12 29.5-12.1l-.3-1.3-1.3-.1c-.3 3.9-1.5 11.5-2.9 20-3.3 19.3-8.1 43.5-8.1 43.6l1.3.3-1.1-.8c-8.7 10.9-20.9 18.6-32.9 21.7-1.9.5-3.6.7-5.2.7-10.6 0-16.7-10.6-16.7-23 0-.8 0-1.5.1-2.3.8-11.9 1.9-21.9 3.3-30.5 8-46.4 26.9-60.8 48.3-63.2.9-.1 1.8-.2 2.6-.2 3.2 0 5.7.7 7.3 1.4.8.4 1.4.7 1.8 1 .2.1.3.3.3.3l.7-.6h-.8c.1.7.2.6.2.6l.7-.6h-.8 1.3l-1.2-.3v.3h1.3l-1.2-.2v.1c-1.7 14.1-8.8 19.6-8.7 19.7l.8 1.1.5-1.3c-1.8-.7-3.7-1.1-5.6-1.1-.5 0-.9 0-1.4.1-5.6.5-11.1 4-15.7 8.7-4.8 5.3-8.7 18.6-11.1 32.4-1.4 8.5-2.2 17-2.2 23.6 0 5.2.4 9.1 1.9 11.4.8 1.1 2.2 1.5 3.4 1.5 3.8-.1 8.7-3 12-6.2l.3-.3.1-.4c.8-4 1.6-8.2 2.2-11.8H175l1.3.2c1.2-7.2 1.9-12.4 1.9-12.4l-2.7-.4 1.4.3z"/><linearGradient id="SVGID_00000170973908535448576230000012913133755132484228_" x1="224.042" x2="224.042" y1="313.325" y2="206.124" gradientUnits="userSpaceOnUse"><stop offset=".016" style="stop-color:#f9ea39"/><stop offset=".969" style="stop-color:#f6eb81"/></linearGradient><path d="M215 216.4s-4.5 31.9-10.7 68.8c-1.7 9.6-2.6 19.1-3.2 28.1 0 0 23.8-10.2 41.9-20.2 0 0 1.5-6.4 2.8-14.2.4-2.3.8-4.8 1-7.1 0 0-13.4 5.7-22.9 10 0 0 1.5-8.9 3.4-20.8 3.1-17.9 7.3-42.8 9.1-54.9 0 0-12.1 5-21.4 10.3z" style="fill:url(#SVGID_00000170973908535448576230000012913133755132484228_)"/><path d="m215 216.4-1.3-.2c0 .1-4.5 31.9-10.7 68.7-1.7 9.7-2.7 19.2-3.2 28.3l-.1 2.2 2-.9s23.9-10.2 42-20.2l.5-.3.1-.6s1.6-6.5 2.8-14.3c.4-2.3.8-4.9 1-7.2l.2-2.3-2.1.9s-13.4 5.7-23 10l.6 1.2 1.3.2s1.5-8.9 3.4-20.8c3.1-17.9 7.3-42.8 9.1-54.9l.3-2.3-2.2.9s-12.1 5-21.5 10.4l.8 1.2 1.3.2-2.7-.4 1.4.2-1.3-.2-.4 2.7 2.4-1.4c9.2-5.2 21.2-10.2 21.2-10.2l-.5-1.2-1.3-.2c-1.8 12.1-6 37-9.1 54.8-1.9 12-3.4 20.8-3.4 20.8l-.4 2.5 2.3-1c9.5-4.3 22.9-9.9 22.9-9.9l-.5-1.2-1.3-.1c-.2 2.3-.6 4.7-1 7-1.2 7.7-2.8 14.1-2.8 14.1l1.3.3-.7-1.2c-17.9 9.9-41.7 20.1-41.7 20.1l.5 1.2 1.3.1c.5-9 1.5-18.4 3.2-28 6.2-36.9 10.7-68.8 10.7-68.8l-2.7-.4 1.3.2z"/><linearGradient id="SVGID_00000158720420603085487610000006572860065854277266_" x1="277.74" x2="277.74" y1="304.041" y2="187.418" gradientUnits="userSpaceOnUse"><stop offset=".016" style="stop-color:#f9ea39"/><stop offset=".969" style="stop-color:#f6eb81"/></linearGradient><path d="M296.6 281c3.7-46.1 9.4-93.6 9.4-93.6-5.6 2.1-21.2 11.4-21.2 11.4-1.1 5.5-2.2 24-3.1 40.9-.9 17-2.1 32.9-2.1 32.9-4.1 3.2-6.9 5.5-9 6-1.6.3-2.5-.7-2.4-3.9 1-20.8 6.6-70.1 6.6-70.1-3.7 1.6-20.2 11-20.2 11-1.8 12.1-2.9 29.9-3.9 47.1-.5 9.9-.8 20.7-1.1 32.5-.4 8.5 4.2 9.5 8.8 8.5 3-.6 5.8-2 7.5-3 22.6-12.5 30.7-19.7 30.7-19.7z" style="fill:url(#SVGID_00000158720420603085487610000006572860065854277266_)"/><path d="m296.6 281 1.3.1c3.7-46.1 9.4-93.5 9.4-93.6l.3-2.2-2.1.8c-5.9 2.3-21.4 11.5-21.4 11.5l-.5.3-.1.6c-1.2 5.8-2.2 24.2-3.1 41.1-.9 17-2.1 32.8-2.1 32.8l1.3.1-.8-1.1c-4.1 3.2-7 5.5-8.5 5.7h-.3c-.1 0-.3 0-.5-2.1v-.5h-1.3l1.3.1c1-20.7 6.6-70 6.6-70l.3-2.3-2.1.9c-3.9 1.7-20.3 11.1-20.4 11.1l-.6.3-.1.6c-1.8 12.2-2.9 30-3.9 47.2-.5 9.9-.8 20.8-1.1 32.5h1.3l-1.3-.1v1c0 6.5 3.6 9.3 7.6 9.3 1 0 2-.1 2.9-.3 3.2-.7 6.1-2.1 7.9-3.2l-.7-1.2.7 1.2c22.8-12.5 31-19.8 31.1-19.9l.4-.4v-.5l-1.5.2-.9-1s-7.9 7.1-30.6 19.5c-1.6.9-4.3 2.3-7.1 2.8-.8.2-1.6.3-2.4.3-2.8-.2-4.7-.9-4.9-6.6v-.9c.3-11.7.6-22.6 1.1-32.5 1-17.2 2.1-35 3.9-47l-1.3-.2.7 1.2s16.6-9.5 20.1-11l-.5-1.2-1.3-.2s-5.6 49.3-6.6 70.2v.5c0 2.4.9 4.8 3.2 4.8.3 0 .6 0 .8-.1 2.7-.7 5.4-3 9.5-6.2l.5-.4v-.6s1.3-15.9 2.1-32.9c.9-16.8 1.9-35.4 3-40.7l-1.3-.3.7 1.2s15.7-9.3 21-11.3l-.5-1.3-1.3-.2s-5.7 47.5-9.4 93.7l1.5.4-.9-1 .9 1z"/><linearGradient id="SVGID_00000041286285797570949710000000478154530397783946_" x1="331.215" x2="331.215" y1="290.528" y2="171.445" gradientUnits="userSpaceOnUse"><stop offset=".016" style="stop-color:#f9ea39"/><stop offset=".969" style="stop-color:#f6eb81"/></linearGradient><path d="M348.2 247.6s-10.1 6.7-22.4 12.7c-.1-4-.1-6.6.1-9.5.1-2.2.4-4.6 1.2-8 11.6-6.7 20.8-12.4 20.8-12.4 1.5-7.6 2.2-19 2.2-19-6.4 2.4-14.9 6.6-21.1 10.1-.1-2-.1-4 .1-6.2.2-3 .7-6.2 1.7-9.1 0 0 12.4-7.4 23.8-13.1 0 0 1.7-7 2.1-14.3.3-2.5.3-5 .2-7.3 0 0-25.1 10.1-43.5 23.4 0 0-3.7 31.8-6 62-1 12.3-1.7 24.3-1.8 33.6 0 0 23.8-7.8 43.7-24.4-.1 0 .9-8.5-1.1-18.5z" style="fill:url(#SVGID_00000041286285797570949710000000478154530397783946_)"/><path d="m348.2 247.6-.7-1.1s-10 6.6-22.3 12.6l.6 1.2h1.3c-.1-1.8-.1-3.3-.1-4.7 0-1.7.1-3.1.2-4.6.1-2.1.4-4.4 1.1-7.7l-1.3-.3.7 1.2c11.6-6.7 20.8-12.4 20.8-12.4l.5-.3.1-.6c1.6-7.7 2.2-19.2 2.2-19.2l.1-2.1-1.9.7c-6.5 2.5-15 6.7-21.2 10.2l.7 1.2h1.3c0-1-.1-1.9-.1-2.9s0-2.1.1-3.2c.2-2.9.7-6 1.6-8.8l-1.3-.4.7 1.2s12.4-7.4 23.7-13l.6-.3.1-.6s1.7-7.1 2.2-14.6l-1.3-.1 1.3.2c.2-1.6.3-3.2.3-4.8 0-.9 0-1.9-.1-2.8l-.1-1.9-1.8.7c-.1 0-25.2 10.1-43.8 23.6l-.5.3-.1.6s-3.7 31.8-6 62.1c-1 12.3-1.7 24.4-1.8 33.7v1.9l1.8-.6c.1 0 24-7.9 44.1-24.6l.4-.3.1-.5s.3-2.3.3-5.9c0-3.4-.3-8.1-1.3-13.1h-1.2l.7 1.1-1.5-2.3.8 1.2-.7-1.1-.8.5.2.9c1 4.8 1.2 9.3 1.2 12.6 0 3.4-.3 5.5-.3 5.5l1.3.2-.9-1c-19.6 16.4-43.2 24.1-43.2 24.1l.4 1.3h1.3c.1-9.3.8-21.3 1.8-33.6 2.3-30.1 6-61.9 6-61.9l-1.3-.2.8 1.1c18.2-13.2 43.2-23.2 43.2-23.3l-.5-1.2-1.3.1c0 .9.1 1.7.1 2.6 0 1.5-.1 3-.3 4.5-.5 7.2-2.1 14.1-2.1 14.1l1.3.3-.6-1.2C342.4 197.6 330 205 330 205l-.4.3-.2.5c-1 3.1-1.5 6.4-1.8 9.5l1.3.1-1.3-.1c-.1 1.2-.1 2.3-.1 3.4 0 1 0 2 .1 2.9l.1 2.2 1.9-1.1c6.1-3.4 14.6-7.6 20.9-10l-.5-1.3-1.3-.1s-.7 11.4-2.2 18.8l1.3.3-.7-1.1s-9.1 5.7-20.7 12.4l-.5.3-.1.6c-.8 3.4-1.1 5.9-1.2 8.2h1.3l-1.3-.1c-.1 1.6-.2 3.2-.2 4.9 0 1.4 0 2.9.1 4.7l.1 2.1 1.9-.9c12.5-6.1 22.6-12.8 22.6-12.8l-1.5-2.3.6 1.2z"/><linearGradient id="SVGID_00000043434354569116071290000009772029612913574797_" x1="129.361" x2="130.857" y1="234.265" y2="100.498" gradientUnits="userSpaceOnUse"><stop offset=".149" style="stop-color:#f9ea39"/><stop offset=".969" style="stop-color:#f6eb81"/></linearGradient><path d="M159.1 191.5c1.4-7.7-2.5-11.8-2.5-11.8-2.1-2.1-3.7-4.1-6.8-6.5-6.5-5.2-13.7-10.3-20.4-15.3-6.9-5 9.4-15.8 11.7-17.4 3.3-2.2 10.5-5.8 16-7.3 1.6-3.8 3.1-8.6 3.8-13.3.8-4.1 1.1-8.4 1-12.5-9.5 1.9-20.1 6.3-28.9 11.6-7.7 4.6-12.7 8.7-20.3 16.6-6.2 6.4-12 16-13.3 23.7-2 11.2 5.7 19.4 16.3 25.6 3.5 2 5.9 3.5 9.7 5.9 4.4 3.1 7.6 4.9 2.3 10-12.5 13-28.7 17.6-28.7 17.6 0 6-.1 13.2 2.8 23.5 0 0 8.2-1.7 20.8-9.1 15.4-8.7 33.8-24.6 36.5-41.3z" style="fill:url(#SVGID_00000043434354569116071290000009772029612913574797_)"/><path d="m159.1 191.5 1.3.2c.2-1.3.3-2.4.3-3.5 0-6-3-9.3-3.1-9.4-2.1-2-3.7-4.1-6.9-6.6l-.8 1.1.8-1.1c-6.5-5.2-13.8-10.4-20.4-15.3-.9-.7-1.1-1.2-1.1-1.9-.4-3.9 10.8-12.1 12.8-13.2 3.1-2.1 10.3-5.7 15.5-7.1l.6-.2.3-.6c1.6-3.9 3.1-8.8 3.9-13.6l-1.3-.2 1.3.2c.7-3.5 1-7.1 1-10.6 0-.7 0-1.5-.1-2.2l-.1-1.6-1.5.3c-9.7 1.9-20.4 6.4-29.3 11.8-7.8 4.6-13 8.9-20.6 16.8-6.3 6.6-12.3 16.3-13.6 24.4l1.3.2-1.3-.2c-.2 1.3-.3 2.6-.3 3.8 0 10.2 7.7 17.6 17.3 23.2 3.5 2 5.9 3.5 9.6 5.8l.7-1.1-.8 1.1c2.9 1.9 4.7 3.4 4.5 4.4 0 .6-.5 1.8-2.3 3.6-12.2 12.7-28.1 17.2-28.1 17.2l-1 .3v2.9c0 5.6.2 12.6 2.8 22l.3 1.2 1.2-.3c.1 0 8.4-1.8 21.2-9.3 15.6-9 34.3-24.8 37.2-42.3l-1.3-.2 1.3.2-1.3-.2-1.3-.2c-2.5 15.9-20.6 31.8-35.9 40.4-12.5 7.3-20.4 8.9-20.4 9l.3 1.3 1.3-.4c-2.6-9.1-2.7-15.7-2.7-21.3v-1.9h-1.3l.4 1.3c.1 0 16.5-4.7 29.3-18l-1-.9.9 1c2.1-2 3.1-3.7 3.2-5.5-.2-3.2-3-4.6-5.6-6.6-3.7-2.4-6.2-3.9-9.7-5.9-9.4-5.4-16-12.2-16-20.8 0-1.1.1-2.2.3-3.3 1.1-7.2 6.9-16.8 12.9-23 7.6-7.8 12.4-11.9 20-16.4 8.7-5.2 19.2-9.6 28.5-11.5l-.3-1.3-1.3.1v2c0 3.3-.4 6.8-1 10.1-.7 4.6-2.2 9.3-3.7 13l1.2.5-.4-1.3c-5.7 1.6-12.9 5.1-16.4 7.5l.8 1.1-.7-1.1c-2 1.5-13.6 8.5-14 15.5 0 1.5.8 3.1 2.2 4.1l.8-1.1-.8 1.1c6.7 5 13.9 10.1 20.4 15.3 3 2.3 4.5 4.2 6.7 6.4l1-1-1 .9s2.4 2.5 2.4 7.6c0 .9-.1 1.9-.3 3l1.2.3z"/><linearGradient id="SVGID_00000003811581780478784890000010076073223344174982_" x1="184.86" x2="186.303" y1="199.391" y2="96.712" gradientUnits="userSpaceOnUse"><stop offset=".109" style="stop-color:#f9ea39"/><stop offset=".969" style="stop-color:#f6eb81"/></linearGradient><path d="M199.8 186.5c9-45.4 20.3-91.9 20.3-91.9-5.8 1.5-22.4 8.8-22.4 8.8-1.8 5.4-5 23.6-7.8 40.2-2.9 16.8-6 32.4-6 32.4-4.5 2.7-7.5 4.7-9.6 4.9-1.7.2-2.4-1-1.9-4.1 3.4-20.5 14.8-68.9 14.8-68.9-3.9 1.1-21.4 8.6-21.4 8.6-3.2 11.8-6.4 29.4-9.4 46.3-1.7 9.8-3.3 20.5-4.9 32.1-1.4 8.4 3.1 10 7.8 9.5 3-.3 6-1.3 7.8-2.1 23.8-9.6 32.7-15.8 32.7-15.8z" style="fill:url(#SVGID_00000003811581780478784890000010076073223344174982_)"/><path d="m199.8 186.5 1.3.3c9-45.3 20.2-91.7 20.3-91.8l.5-2.2-2.2.5c-6.1 1.6-22.6 8.9-22.6 8.9l-.5.2-.2.6c-1.9 5.6-5 23.7-7.9 40.4-2.9 16.8-6 32.3-6 32.3l1.3.3-.7-1.2c-4.5 2.7-7.6 4.6-9.1 4.7h-.2c-.4-.1-.2 0-.4-1.1 0-.4 0-.9.1-1.4l-1.3-.2 1.3.2c3.4-20.4 14.8-68.7 14.8-68.8l.5-2.3-2.2.6c-4.1 1.2-21.5 8.6-21.5 8.6l-.6.3-.2.6c-3.2 11.9-6.4 29.5-9.4 46.4-1.7 9.8-3.3 20.5-4.9 32.2l1.3.2-1.3-.2c-.2 1.1-.3 2.1-.3 3 0 5.9 4.1 8.1 8 8.1.5 0 1 0 1.5-.1 3.3-.3 6.3-1.4 8.2-2.2l-.5-1.2.5 1.2c24.1-9.8 33.1-16 33.2-16.1l.4-.3.1-.5h-1.3l-.8-1.1s-8.7 6.1-32.7 15.8c-1.7.7-4.5 1.7-7.3 2-.4 0-.8.1-1.2.1-3.2-.2-5.1-.8-5.3-5.4 0-.8.1-1.6.2-2.6 1.7-11.6 3.2-22.3 4.9-32.1 3-16.9 6.2-34.5 9.4-46.2l-1.3-.4.5 1.2s17.6-7.5 21.2-8.5l-.4-1.3-1.3-.3s-11.4 48.3-14.8 69c-.1.7-.2 1.3-.2 1.9 0 1.9 1.2 3.8 3.1 3.8h.4c2.8-.3 5.7-2.4 10.2-5.1l.5-.3.1-.6s3.1-15.6 6-32.4c2.9-16.6 6.1-34.9 7.8-40l-1.3-.4.5 1.2s16.7-7.4 22.2-8.8l-.3-1.3-1.3-.3s-11.2 46.5-20.3 91.9l1.5.2-.8-1.1.8 1.1z"/><linearGradient id="SVGID_00000078026583492111192730000001677058291513892253_" x1="242.461" x2="242.676" y1="191.004" y2="88.219" gradientUnits="userSpaceOnUse"><stop offset=".179" style="stop-color:#f9ea39"/><stop offset=".969" style="stop-color:#f6eb81"/></linearGradient><path d="M271.4 93.7c-4.2-5.1-9-6.6-14.4-6.1-3.5.3-7.2 1.6-11.3 3.4-13.9 6.2-24.4 18.4-24.4 18.4-.5 5.6-.8 14.5-2.1 24.8-3.7 27-8.6 62-8.6 62 9.6-2.1 19.6-8.4 19.6-8.4l3.5-24.2c10.7-8.4 15.8-12.7 25-23.8 8.6-10.6 13.7-21.6 15.3-30.5 1.1-6.8.3-12.2-2.6-15.6zm-34.6 47.2 3.4-27.1s9.4-9.1 13-5.3c1.2 1 1.7 3.4 1.1 6.9-1 5.7-5.4 14.5-17.5 25.5z" style="fill:url(#SVGID_00000078026583492111192730000001677058291513892253_)"/><path d="m271.4 93.7 1-.8c-3.9-4.8-8.6-6.8-13.5-6.7-.7 0-1.3 0-2 .1-3.7.4-7.5 1.7-11.7 3.5-14.3 6.4-24.8 18.6-24.9 18.7l-.3.3v.4c-.6 5.6-.8 14.5-2.1 24.8l1.3.2-1.3-.2c-3.7 27-8.6 62-8.6 62l-.3 1.9 1.9-.4c9.9-2.2 19.9-8.6 20-8.6l.5-.3 3.6-24.8-1.3-.2.8 1.1c10.7-8.3 16-12.8 25.2-24 8.8-10.8 13.9-22 15.6-31.1.3-1.9.5-3.7.5-5.5 0-4.5-1.1-8.4-3.4-11.1l-1 .7 1-.8-1 .8-1 .9c1.8 2.1 2.8 5.3 2.8 9.4 0 1.6-.1 3.2-.4 5l1.3.2-1.3-.2c-1.6 8.6-6.5 19.5-15.1 29.9-9.2 11.1-14.1 15.2-24.8 23.6l-.4.3-3.6 24.7 1.3.2-.7-1.1s-9.9 6.2-19.1 8.2l.3 1.3 1.3.2c0-.1 4.8-35 8.6-62 1.3-10.4 1.6-19.4 2.1-24.9l-1.3-.1 1 .9s10.4-12 24-18l-.6-1.2.5 1.2c4.1-1.7 7.7-3 10.9-3.3.6-.1 1.2-.1 1.7-.1 4.3 0 8 1.5 11.4 5.7l1.1-.8zm-34.6 47.2 1.3.2 3.4-27.1-1.3-.2.9 1c0-.1 6.6-6.1 9.7-5.9.6 0 1 .1 1.3.5l.1.1.1.1c.3.2.9 1.3.9 3.2 0 .7-.1 1.6-.2 2.5-.9 5.3-5.1 13.9-17.1 24.7l.9.9 1.3.2-1.3-.2.9 1c12.3-11.1 16.8-20.1 17.9-26.3.2-1.1.3-2 .3-2.9 0-2.3-.5-4.1-1.8-5.3l-.9 1 1-.9c-.9-1-2.1-1.4-3.3-1.3-5.3.2-11.5 6.6-11.6 6.7l-.3.3-3.9 31.2 2.7-2.4-1-1.1z"/><linearGradient id="SVGID_00000085950880134623194630000013211747919571312563_" x1="291.161" x2="293.856" y1="183.189" y2="77.592" gradientUnits="userSpaceOnUse"><stop offset=".179" style="stop-color:#f9ea39"/><stop offset=".969" style="stop-color:#f6eb81"/></linearGradient><path d="M309.6 146.4s-10 6.7-22.4 12.8c-.1-4-.2-6.6 0-9.5 0-2.2.4-4.6 1.1-8 11.6-6.7 20.7-12.5 20.7-12.5 1.5-7.6 2.1-19 2.1-19-6.4 2.5-14.8 6.7-21 10.2-.1-2-.1-4 0-6.2.2-3 .7-6.2 1.7-9.2 0 0 12.4-7.5 23.7-13.2 0 0 1.6-7 2.1-14.4.3-2.5.3-5 .1-7.3 0 0-25 10.2-43.4 23.7 0 0-3.5 31.8-5.6 62-.9 12.3-1.5 24.3-1.6 33.7 0 0 23.8-8 43.5-24.6.1.1 1.1-8.5-1-18.5z" style="fill:url(#SVGID_00000085950880134623194630000013211747919571312563_)"/><path d="m309.6 146.4-.8-1.1s-10 6.7-22.2 12.7l.6 1.2 1.3-.1c-.1-2-.1-3.6-.1-5.1 0-1.5 0-2.8.2-4.2 0-2.1.3-4.4 1.1-7.7l-1.3-.3.7 1.2c11.6-6.7 20.7-12.5 20.8-12.5l.5-.3.1-.6c1.5-7.7 2.1-19.2 2.1-19.2l.1-2.1-1.9.8c-6.5 2.5-15 6.8-21.2 10.3l.7 1.2 1.3-.1c0-1-.1-2.1-.1-3.1s0-1.9.1-2.9c.2-2.9.7-6 1.6-8.8l-1.3-.4.7 1.2s12.3-7.5 23.6-13.2l.6-.3.1-.6s1.6-7.1 2.1-14.6l-1.3-.1 1.3.2c.2-1.5.2-3.1.2-4.5 0-1 0-2.1-.1-3l-.1-1.9-1.7.7c-.1 0-25.1 10.3-43.7 23.8l-.5.3-.1.6s-3.5 31.9-5.6 62.1c-.9 12.3-1.5 24.4-1.6 33.7v1.9l1.8-.6c.1 0 23.9-8 44-24.9l.4-.3.1-.5s.2-2.1.2-5.5c0-3.5-.3-8.3-1.3-13.5l-1.4.1.7 1.1-1.5-2.2.8 1.1-.8-1.1-.8.5.2.9c1 5 1.3 9.6 1.3 13 0 3.2-.2 5.2-.2 5.2l1.3.2-.9-1c-19.5 16.5-43.1 24.3-43.1 24.4l.4 1.3h1.4c.1-9.3.7-21.3 1.6-33.6 2.1-30.2 5.6-61.9 5.6-62l-1.3-.1.8 1.1c18.2-13.3 43.1-23.5 43.1-23.5l-.5-1.2-1.3.1c.1.9.1 1.9.1 2.9 0 1.4-.1 2.8-.2 4.2-.4 7.2-2 14.1-2 14.1l1.3.3-.6-1.2c-11.4 5.8-23.8 13.3-23.8 13.3l-.4.3-.2.5c-1 3.1-1.5 6.4-1.7 9.5l1.3.1-1.3-.1c-.1 1.1-.1 2.1-.1 3.2s0 2.2.1 3.2l.1 2.2 1.9-1.1c6.1-3.5 14.6-7.7 20.8-10.1l-.5-1.3-1.3-.1s-.6 11.4-2.1 18.8l1.3.3-.7-1.1s-9.1 5.8-20.7 12.5l-.5.3-.1.6c-.8 3.4-1.1 5.9-1.1 8.2h1.3l-1.3-.1c-.1 1.5-.2 2.9-.2 4.4 0 1.5 0 3.2.1 5.2l.1 2.1 1.9-.9c12.4-6.1 22.5-12.9 22.5-12.9l-1.5-2.2.7.7z"/><linearGradient id="SVGID_00000015326771314213227430000015564413726984051890_" x1="343.262" x2="346.539" y1="166.736" y2="69.116" gradientUnits="userSpaceOnUse"><stop offset=".016" style="stop-color:#f9ea39"/><stop offset=".969" style="stop-color:#f6eb81"/></linearGradient><path d="M355.6 128.5c9.9-10.3 18.2-23.1 20.2-35.7 1.1-6.4.3-11.7-2.5-15.1-4-5.1-8.9-6.7-14.2-6.2-3.5.3-7 1.6-11.2 3.3-13.9 6.2-25.6 18.5-25.6 18.5-.5 5.7-.1 15-1.7 25.7-3.4 26.9-8.2 61.1-8.2 61.1 9.3-2.1 19.3-8.4 19.3-8.4l4.9-30.5c4.8 7 11.4 17.3 15.2 24.6 0 0 10.5-8.8 15.4-15.7-.1.1-4.8-11.7-11.6-21.6zm-1.1-34.8c.8.8 1.2 2.8.8 5.4-1 5.6-5.4 14.3-16.5 23.1l2.9-21.7c0 .1 9.1-10.4 12.8-6.8z" style="fill:url(#SVGID_00000015326771314213227430000015564413726984051890_)"/><path d="m355.6 128.5 1 .9C366.6 119 375 106 377.2 93c.3-1.9.5-3.7.5-5.4 0-4.3-1-8-3.3-10.7l-1 .8 1.1-.8c-3.7-4.8-8.5-6.8-13.4-6.8-.7 0-1.3 0-2 .1-3.7.4-7.4 1.7-11.6 3.4-14.3 6.4-26 18.7-26.1 18.8l-.3.3v.5c-.5 5.9-.1 15.1-1.7 25.6-3.4 26.9-8.2 61-8.2 61l-.3 1.9 1.9-.4c9.6-2.2 19.6-8.5 19.7-8.6l.5-.3 5-31.1-1.3-.2-1.1.8c4.8 7 11.4 17.3 15.1 24.4l.8 1.5 1.3-1.1s10.5-8.8 15.6-15.9l.4-.6-.3-.7s-4.8-11.9-11.7-22l-1.2 1 1 .9-1-.9-1.1.8c6.6 9.8 11.4 21.4 11.4 21.5l1.2-.5-1.1-.8c-4.7 6.6-15.1 15.4-15.1 15.4l.9 1 1.2-.6c-3.8-7.4-10.4-17.7-15.3-24.7l-1.9-2.8-5.5 33.8 1.3.2-.7-1.1s-9.9 6.2-18.8 8.2l.3 1.3 1.3.2s4.7-34.1 8.2-61.1l-1.3-.2 1.3.2c1.6-10.8 1.2-20.2 1.7-25.8l-1.3-.1 1 .9s11.6-12.1 25.2-18.2l-.6-1.2.5 1.2c4.1-1.7 7.5-2.9 10.8-3.2.6-.1 1.2-.1 1.7-.1 4.3 0 7.9 1.5 11.3 5.7 1.7 2.1 2.7 5.2 2.7 9 0 1.5-.1 3.2-.4 4.9-1.9 12.2-10.1 24.9-19.8 35l-.8.8.6.9 1.1-.6zm-1.1-34.8-1 1c.2.1.6 1 .6 2.5 0 .5 0 1.1-.1 1.8l1.3.2-1.3-.2c-.9 5.2-5.1 13.6-16 22.3l.8 1.1 1.3.2 2.9-21.7-1.3-.2 1 .9c0-.1 6.9-7.4 9.9-7.2.5 0 .7.1 1 .4l.9-1.1.9-1c-.8-.8-1.9-1.2-2.9-1.1-5.5.3-11.7 8.1-11.9 8.1l-.3.3-3.3 25.4 2.6-2.1c11.3-9 15.9-17.9 17-23.9.1-.8.2-1.5.2-2.2 0-1.8-.3-3.3-1.4-4.4l-.9.9z"/></g></svg>