<?xml version="1.0" encoding="UTF-8"?>
<svg id="Layer_1" xmlns="http://www.w3.org/2000/svg" version="1.1" viewBox="0 0 400 400">
  <!-- Generator: Adobe Illustrator 29.1.0, SVG Export Plug-In . SVG Version: 2.1.0 Build 142)  -->
  <defs>
    <style>
      .st0 {
        fill: #004923;
        stroke: #fff;
        stroke-width: 22.38px;
      }

      .st0, .st1 {
        stroke-miterlimit: 10;
      }

      .st2 {
        fill: #fff100;
      }

      .st1 {
        fill: none;
        stroke: #231f20;
        stroke-width: 25.18px;
      }
    </style>
  </defs>
  <polygon class="st0" points="284.97 144.02 336.49 186.33 281.24 199.97 325.93 306.19 246.12 286.01 232.78 336.37 214.5 310.31 130.64 351.04 145.19 249.95 67.51 167.74 134.86 158.05 90.76 83.54 191.16 115.18 288 36.23 284.97 144.02"/>
  <g>
    <path class="st1" d="M213.47,298.08c-18.45,0-32.44-4.11-42.77-12.58-11.02-9.03-16.09-21.81-21-34.17-.62-1.56-1.24-3.12-1.87-4.66-1.1-2.72-1.91-5.81-2.69-8.81-.32-1.23-.63-2.42-.95-3.53-.65.51-1.34,1.07-2.04,1.65-4.44,3.62-9.47,7.72-14.83,7.72-2.73,0-5.15-1.04-7.2-3.09-2.29-2.29-4.66-4.66-4.44-7.59.11-1.41.83-2.67,2.03-3.55,3.21-2.35,4.72-4.19,6.63-6.52,1.12-1.36,2.39-2.91,4.12-4.69,1.46-1.5,2.93-3.21,4.49-5.02,6.12-7.12,13.05-15.18,23.58-15.18,1.27,0,2.58.12,3.88.37.46.09.91.14,1.33.19,4.6.57,7.5,2.4,7.75,9.79.26,7.54.74,21.58,5.72,29.23,7.81,12.01,28.66,23.41,44.58,24.81-.39-.63-.86-1.28-1.33-1.92-2.01-2.73-4-5.47-6-8.21-6.47-8.88-13.16-18.07-20.22-26.64-3.54-4.29-6.8-9.11-9.96-14.74l-.78-1.37c-2.46-4.33-6.17-10.86-7.51-14.87l-.31-.98c-4.99-15.75-10.15-32.03.45-47.89l.07-.1c8.09-11.21,24.67-22.31,38.55-25.82,2.33-.59,5.16-.91,7.97-.91,9.83,0,16.26,3.68,17.65,10.09,2.15,9.92,4.57,19.98,7.11,29.57,4.05-11.11,8.43-21.11,13.3-30.33,2.77-5.2,7.27-12.59,14.47-16.83l.12-.07c2.69-1.53,6.21-2.37,9.95-2.37,6.09,0,11.23,2.13,14.09,5.85,3.09,4.01-.9,9.04-3.28,12.04-.35.44-.65.81-.84,1.09-2.22,3.25-4.52,6.62-6.7,10.01-5.15,8.03-8.49,14.44-10.83,20.8-4.69,12.74-6.09,25.95-4.04,38.21.3,1.81-.09,3.52-1.13,4.95-2.41,3.3-7.51,4.05-11.6,4.65-.47.07-.91.13-1.32.2-1.26.2-2.54.29-3.81.29-8.67,0-15.7-4.41-20.07-8.11-9.25-7.7-13.94-17.93-18.47-27.82-1.8-3.93-3.66-7.97-5.78-11.8-.5.99-.88,2.17-1.29,3.71-5.88,29.9,23.6,58.44,50.66,73.81,4.03,2.29,6.65,6.36,7.6,11.78,1.98,11.35-3.56,25.96-10.06,33.53-10.37,12.08-25.89,15.19-37.09,15.67-2,.09-3.98.13-5.87.13Z"/>
    <path class="st2" d="M275.04,114.51c-5.9,3.48-10,9.53-13.15,15.45-6.7,12.7-11.97,25.95-16.45,39.58-.17.49-.4.61-.57.02-3.64-12.81-7.04-26.54-9.9-39.73-1.74-8.02-15.07-8.12-21.35-6.53-12.76,3.22-28.84,13.76-36.57,24.47-9.85,14.75-4.8,29.8.27,45.82,1.38,4.14,5.88,11.83,8.02,15.64,2.81,5,5.98,9.83,9.61,14.23,9.29,11.26,17.69,23.26,26.34,35.01,1.66,2.26,3.41,4.83,3.03,7.61-17.18.68-42.57-11.97-52.04-26.52-5.28-8.11-5.96-21.74-6.28-31.02-.24-6.95-2.71-6-6.23-6.66-13.31-2.49-20.94,10.76-28.8,18.83-4.52,4.65-5.61,7.51-11.2,11.6-1.65,1.21.33,3.35,2.82,5.84,6.52,6.52,15.51-4.06,21.69-8.2.52-.3,1.72-1.25,2.45.82,1.48,4.17,2.53,10.17,4.34,14.62,5.48,13.47,10.17,27.88,21.84,37.45,12.8,10.49,30.32,12.35,46.27,11.66,12.83-.55,25.97-4.41,34.59-14.46,8.92-10.39,14.62-33.62,3.39-40-32.94-18.71-58.15-48.58-52.34-77.65.89-3.32,1.79-5.78,4.33-8.04.37-.33,1.57.21,1.87.73,8.53,14.01,11.95,30.44,25.02,41.34,5.84,4.95,13.28,8.23,21.06,7.03,4.22-.68,11.91-1.29,11.16-5.77-2.24-13.42-.47-27.28,4.21-40,2.8-7.6,6.81-14.68,11.17-21.48,2.19-3.41,4.47-6.76,6.76-10.1,1.19-1.75,5.99-6.75,4.24-9.03-4.04-5.24-14.25-5.59-19.51-2.59l-.1.06Z"/>
    <path class="st2" d="M275.23,114.84c-5.59,3.15-9.62,8.57-12.35,14.29-2.76,5.8-5.23,11.75-7.45,17.76-2.81,7.66-5.22,15.64-7.36,23.52-.98,3.26-5.19,3.06-6-.23-3.5-10.16-6.67-20.44-9.52-30.8-.58-2.02-1.68-6.2-2.23-8.23-.96-3.54-8.82-3.32-12.01-2.81-1.28.2-2.51.47-3.71.91-9.54,3.29-18.26,9.46-25.43,16.55-.75.74-2.17,2.29-2.85,3.1-4.07,4.66-6.4,10.44-6.46,16.68-.35,7.34,2.95,17.82,5.05,25.54,1.38,4.62,5.07,11.74,7.01,16.29,2.45,5.6,5.56,11.18,8.86,16.33,5.13,8.33,9.83,16.97,14.9,25.27,1.23,2.04,3.86,6.19,5.18,8.18,1.69,2.66,3.98,5.52,3.51,8.88-7.08.27-14.36-1.58-21.02-4.06-12.47-4.9-27.05-13.54-32.97-26.04-2.81-6.62-3.6-13.88-4.09-20.99-.11-1.79-.21-3.57-.28-5.36-.19-2.4.08-5.95-2.62-6.98-2.55-.49-5.3-.87-7.9-.63-3.5.34-6.67,2.03-9.31,4.25-5.49,4.59-9.01,10.86-13.7,16.34-2.9,3.5-5.25,7.55-8.74,10.68-.64.58-1.28,1.13-1.95,1.66-.08.06-.04.04,0,0l.11-.09c.4-.26.77-1.36.63-1.79-.06-.34-.03-.19.11-.04.78,1.01,3.29,3.48,4.03,3.4.64.15,1.64,0,2.86-.56,4.04-1.84,7.42-5.56,11.4-7.8,1.87-1.1,4.36-2.47,6.53-.97,1.28.99,1.69,2.07,1.82,3.43.27,2.34.25,4.73.38,7.01.04,5.5,2.42,10.43,4.49,15.39,4.12,9.72,9.29,19.48,17.77,25.91,12.31,9.32,28.49,9.32,43.21,8.06,13.13-.97,27.46-4.6,34.74-15.92,3.05-4.79,5.4-10.9,5.94-16.4.23-3.55.15-6.94-2.24-8.58-26.77-16.36-56.09-43.29-54.6-77.46.47-6.29,1.65-12.93,6.69-17.49,2.86-2.92,7.81-1.39,9.52,1.81,7.29,12.55,10.41,27.1,19.95,37.73,5.29,5.84,12.65,10.69,20.75,10,1.51-.15,3.56-.4,5.11-.64,1.85-.33,3.72-.67,4.66-1.62.01-.03.04-.08.02-.26-2.18-15.11.44-30.61,6.57-44.47,4.47-10.01,10.7-18.85,17-27.67,1.61-2.26,3.47-3.96,4.59-6.38.33-.72.46-1.47.24-1.88-3.97-5.28-13.33-5.66-18.87-2.82h0ZM274.84,114.18c6.03-3.41,16.26-3.14,20.67,2.71,1.52,3.53-2.96,7.48-4.55,10.19-1.96,3-3.91,5.99-5.78,9.02-11.44,17.58-18.21,38.88-14.56,59.82,2.27,8.52-8.13,9.59-14.06,10.55-10.14,1.4-19.76-3.91-26.68-10.87-10.64-10.57-14.92-25.36-22.46-37.41,0,0-.35-.56-.35-.56-.02-.05-.26-.38.14.2,1.1,1.52,3.15,1.44,4.79.29.62-.51.13-.1.25-.19-1.26,1.24-1.7,2.26-2.29,4.32-.77,2.96-.9,6.06-.82,9.12,1.64,27.88,28.07,49.69,51.06,62.34,7.91,3.96,10.93,13.35,10.71,21.46-.42,17.64-9.28,34.6-25.76,42.01-11.57,5.35-23.42,5.9-35.47,4.6-15.23-1.57-31.01-7.54-40.94-19.64-11.83-14.3-14.31-33.25-23.48-48.94-.34-.52-.65-1.15-1.01-1.61-.08-.07-.15-.1-.16-.04,0,.07.04.26.37.52.33.29.96.42,1.3.4.35-.01.47-.06.47,0,0,.02-.04.07-.12.14-.07.06-.13.12-.18.18-2.51,2.54-5.03,4.85-8.03,6.95-5.24,4-12.84,6.56-18.04.72-1.61-1.91-3.37-3.29-3.99-6.16-.33-1.49.43-3.7,1.74-4.56,0,0,.27-.2.27-.2l.25-.17c.31-.2,1.19-.83,1.5-1.06,2.07-1.51,3.65-3.12,5.47-5.11,3.69-3.95,7.73-7.41,11.54-11.43,8.11-8.08,15.1-12.93,26.87-9.43,2.78,1.16,2.39,4.79,2.56,7.26.06,1.79.11,3.58.23,5.37.22,3.57.57,7.14,1.18,10.67,1.08,7.1,3.81,13.99,8.96,19.13,7.43,7.78,16.93,13.39,26.92,17.23,6.68,2.48,13.79,4.32,20.96,3.98.19-3.04-2.08-5.96-4.11-8.32-6.07-7.47-12.6-14.86-19.36-21.7-4.45-4.7-9.61-9.09-13.95-13.89-5.58-6.31-10.38-13.37-14.62-20.67-1.79-3.01-3.08-6.64-4.21-10.03-1.66-4.93-3.14-9.68-4.12-14.99-3.21-16.66,1.53-31.02,14.78-41.93,9.72-8.08,21.06-14.17,33.44-16.97,7.46-1.28,15.93-1.02,22.55,3.55,2.43,1.74,4.56,4.84,5.01,8.06,2.24,13.01,4.83,26.04,7.69,38.93,0,0,.13.59.13.59,0,0,.03.15.03.15-.38-1.06-1.75-1.89-3.01-1.59-.55.12-.89.34-1.11.51-.49.41-.59.64-.69.93,0,0,.22-.56.22-.56l1.81-4.51c4.95-12,10.54-23.76,17.22-34.89,3.48-5.46,7.2-10.98,12.8-14.48h0Z"/>
  </g>
</svg>